<svg width="96" height="96" viewBox="0 0 96 96" fill="none" xmlns="http://www.w3.org/2000/svg">
<g clip-path="url(#clip0_2_230)">
<path d="M80 72C84.4 72 87.96 68.4 87.96 64L88 24C88 19.56 84.4 16 80 16H16C11.56 16 8 19.56 8 24V64C8 68.4 11.56 72 16 72H0V80H96V72H80ZM16 64V24H80V64V64.04L16 64ZM36.3868 39.8124C36.3868 35.7044 39.7308 32.3564 43.8428 32.3564C47.9508 32.3564 51.2988 35.7044 51.2988 39.8124C51.2988 43.9204 47.9508 47.2684 43.8428 47.2684C39.7308 47.2684 36.3868 43.9204 36.3868 39.8124ZM64.5148 56.7564L54.5868 46.8284C55.9108 44.8084 56.6948 42.4004 56.6948 39.8124C56.6948 32.7244 50.9308 26.9604 43.8428 26.9604C36.7548 26.9604 30.9868 32.7244 30.9868 39.8124C30.9868 46.9004 36.7548 52.6684 43.8428 52.6684C46.3868 52.6684 48.7428 51.9004 50.7388 50.6244L60.6948 60.5764L64.5148 56.7564Z" fill="#17A72F"/>
</g>
<defs>
<clipPath id="clip0_2_230">
<rect width="96" height="96" fill="white"/>
</clipPath>
</defs>
</svg>
