<svg xmlns="http://www.w3.org/2000/svg" width="108" height="40" viewBox="0 0 108 40"><path d="M99.3 0H7.5l-2 .2a7 7 0 00-1.9.6A6.1 6.1 0 002 2 6.1 6.1 0 00.8 3.6a7 7 0 00-.6 1.9 15 15 0 00-.2 2v25a13.6 13.6 0 00.2 2 7 7 0 00.6 1.9A6.1 6.1 0 002 38a6.1 6.1 0 001.6 1.2 7 7 0 001.9.6l2 .2h93.8l2-.2a6 6 0 001.9-.6 6.6 6.6 0 001.7-1.2 9.1 9.1 0 001.1-1.6 14.6 14.6 0 00.7-1.9 13.4 13.4 0 00.1-2v-.9a4.5 4.5 0 00.1-1.1v-21a4.5 4.5 0 00-.1-1.1v-.9a14.1 14.1 0 00-.1-2 14.6 14.6 0 00-.7-1.9 6.3 6.3 0 00-2.8-2.8 6 6 0 00-1.9-.6l-2-.2h-2z" fill="#a6a6a6"/><path d="M8.4 39.1H5.7a4.9 4.9 0 01-1.7-.7 7.1 7.1 0 01-1.4-1 7.1 7.1 0 01-1-1.4 3.4 3.4 0 01-.5-1.7 11 11 0 01-.2-1.8v-25a11 11 0 01.2-1.8A3.4 3.4 0 011.6 4a7.1 7.1 0 011-1.4 7.1 7.1 0 011.4-1 3.4 3.4 0 011.7-.5A5.5 5.5 0 017.5.9h93.8a6.2 6.2 0 011.9.2 3 3 0 011.6.5 5.8 5.8 0 012.5 2.4 8.4 8.4 0 01.5 1.7 11.1 11.1 0 01.2 1.9v24.9a11 11 0 01-.2 1.8 8.4 8.4 0 01-.5 1.7 7.6 7.6 0 01-1.1 1.4 5 5 0 01-1.4 1 4.4 4.4 0 01-1.6.6H8.4z"/><path d="M41.2 16.6h-4.1l-1 2.8h-1.7l3.9-10.6H40l3.9 10.6h-1.8zm-3.7-1.4h3.2l-1.5-4.6h-.1zm14.7.4c0 2.4-1.3 3.9-3.3 3.9a2.6 2.6 0 01-2.4-1.3V22h-1.6V11.7h1.5V13a2.9 2.9 0 012.5-1.4c2 0 3.3 1.6 3.3 4zm-1.7 0c0-1.6-.8-2.6-2-2.6s-2 1-2 2.6.8 2.6 2 2.6 2-1.1 2-2.6zm10.2 0c0 2.4-1.3 3.9-3.2 3.9a2.8 2.8 0 01-2.5-1.3V22h-1.6V11.7h1.5V13h.1a2.7 2.7 0 012.4-1.4c2 0 3.3 1.6 3.3 4zm-1.6 0c0-1.6-.8-2.6-2.1-2.6s-2 1-2 2.6.8 2.6 2 2.6 2.1-1.1 2.1-2.6zm7.2.9a2.4 2.4 0 002.6 1.7c1.3 0 2.3-.7 2.3-1.6s-.6-1.3-2-1.7l-1.4-.3c-1.9-.5-2.8-1.4-2.8-2.9s1.6-3.1 3.9-3.1 3.7 1.3 3.8 3.1h-1.6a2.1 2.1 0 00-2.3-1.7c-1.2 0-2.1.7-2.1 1.6s.5 1.2 1.9 1.5l1.2.3c2.2.5 3.1 1.4 3.1 3s-1.6 3.2-4.1 3.2-4-1.2-4.1-3.1zm10-6.7v1.9h1.5v1.2h-1.5v4.3c0 .7.3 1 .9 1h.6v1.3h-.9c-1.6 0-2.2-.6-2.2-2.1v-4.5h-1.1v-1.2h1.1V9.8zm2.3 5.8c0-2.5 1.5-4 3.7-4s3.7 1.5 3.7 4-1.4 3.9-3.7 3.9-3.7-1.5-3.7-3.9zm5.8 0c0-1.7-.8-2.7-2.1-2.7s-2.1 1-2.1 2.7.8 2.6 2.1 2.6 2.1-1 2.1-2.6zm2.9-3.9h1.5V13a1.9 1.9 0 011.9-1.4h.6V13h-.8a1.6 1.6 0 00-1.6 1.6v4.8h-1.6zm11.3 5.5a3.1 3.1 0 01-3.4 2.3c-2.2 0-3.6-1.5-3.6-3.9s1.4-4 3.6-4 3.5 1.5 3.5 3.8v.6h-5.5a2 2 0 001.8 2.2h.3a1.7 1.7 0 001.8-1zm-5.4-2.4h3.9a1.8 1.8 0 00-1.8-1.9h-.1a1.9 1.9 0 00-2 1.9zm-56.8 16V30h1c.2 0 .4 0 .5-.2a4.5 4.5 0 00.4-2.3c0-.8-.2-1.1-.9-1.1H37a15.7 15.7 0 01-1.8 4.2l-.8-.5a9.9 9.9 0 001.7-3.6l-1.5.3-.2-.9 1.9-.2.3-1.9h.9l-.3 1.7h.3c1.2 0 1.8.6 1.8 1.9a5.6 5.6 0 01-.5 2.8 1.3 1.3 0 01-1.2.6zm3.1-5.1l.7-.4a5.4 5.4 0 011.6 3.5h-.9a5.5 5.5 0 00-1.4-3.1zm5.4 5.2l-.2-.8h.7c1.9 0 2.6-.5 2.6-1.3s-.4-1-1.3-1a4.3 4.3 0 00-2.6 1.3l-.7-.3a5.7 5.7 0 01.8-3.6l.8.3a4.3 4.3 0 00-.7 2.5 4.3 4.3 0 012.6-.9c1.2 0 2 .6 2 1.7s-1 2.2-3.6 2.2zm-.9-6.2l.2-.8a22.1 22.1 0 013.7.8l-.2.8a22.1 22.1 0 00-3.7-.8zm7.7 5.6a6.7 6.7 0 002.5-1.6 9.4 9.4 0 00-1.8-1.2l.5-.7a7.8 7.8 0 011.8 1.1 5.1 5.1 0 001-2.1h-2.4a9.3 9.3 0 01-2.1 2.3l-.7-.6a7.8 7.8 0 002.6-3.6l.9.3-.3.8H56l.7.3a7 7 0 01-4.5 5.7zm3.9-6.6l.6-.2.6 1.1-.6.3a3.4 3.4 0 00-.6-1.2zm1.2-.1l.5-.2a3.5 3.5 0 01.7 1.2l-.6.2a3.4 3.4 0 00-.6-1.2zm4.1 7.4l-.5-.8a3.9 3.9 0 003.4-4.1h-4V28h-.9v-2.7h2.3v-1.4h1v1.4h1.7l.9.2c-.1 2.7-1 4.7-3.9 5.5zm5.7-5.7l.5-.7a7.2 7.2 0 012.4 1.4l-.6.8a11.4 11.4 0 00-2.3-1.5zm.2 4.7a7.3 7.3 0 005.4-3.9l.7.7a8.6 8.6 0 01-5.7 4.1zm13.8.4h-6v-5.6h6zm-5-4.7v3.9h4v-3.9zM89 27.9h-6.6V27H89zm2.3-4h.9v2.4a20.2 20.2 0 013.6 1.8l-.5.9a18.7 18.7 0 00-3.1-1.7v3.6h-.9zm2.2.5l.6-.2a7.5 7.5 0 01.7 1.2l-.7.3a3.8 3.8 0 00-.6-1.3zm1.1-.4l.6-.2a7.5 7.5 0 01.7 1.2l-.6.3a8.3 8.3 0 00-.7-1.3zm-69.8-3.7a5 5 0 012.3-4.2 4.9 4.9 0 00-4-2.1c-1.6-.2-3.3 1-4.1 1s-2.2-1-3.6-1a5.3 5.3 0 00-4.5 2.8c-1.9 3.3-.5 8.2 1.4 10.9s2 2.8 3.4 2.8 1.9-.9 3.6-.9 2.1.9 3.5.9 2.5-1.4 3.4-2.7a17.7 17.7 0 001.5-3.1 4.7 4.7 0 01-2.9-4.4zM22 12.2a5.5 5.5 0 001.2-3.5 5.3 5.3 0 00-3.3 1.7 4.4 4.4 0 00-1.1 3.3 3.7 3.7 0 003.2-1.5z" fill="#fff"/></svg>