<svg width="250" height="250" viewBox="0 0 250 250" fill="none" xmlns="http://www.w3.org/2000/svg">
<circle cx="125" cy="125" r="125" fill="url(#paint0_linear_1_14)"/>
<path fill-rule="evenodd" clip-rule="evenodd" d="M127.398 122.611C128.569 123.782 128.569 125.682 127.398 126.853L101.393 152.858C95.5355 158.716 95.5355 168.213 101.393 174.071C107.251 179.929 116.749 179.929 122.607 174.071L160.858 135.82C163.909 132.769 165.371 128.73 165.243 124.732C165.371 120.735 163.909 116.696 160.858 113.644L122.607 75.3934C116.749 69.5355 107.251 69.5355 101.393 75.3934C95.5355 81.2513 95.5355 90.7487 101.393 96.6066L127.398 122.611Z" fill="white"/>
<defs>
<linearGradient id="paint0_linear_1_14" x1="90" y1="125" x2="307.5" y2="282" gradientUnits="userSpaceOnUse">
<stop stop-color="#FE612E"/>
<stop offset="1" stop-color="#FF0000"/>
<stop offset="1" stop-color="#FF9370" stop-opacity="0.46"/>
</linearGradient>
</defs>
</svg>
