<svg xmlns="http://www.w3.org/2000/svg" width="135" height="40" viewBox="0 0 135 40"><defs><linearGradient id="a" x1="21.8" y1="33.29" x2="5.02" y2="16.51" gradientTransform="matrix(1 0 0 -1 0 42)" gradientUnits="userSpaceOnUse"><stop offset="0" stop-color="#00a0ff"/><stop offset=".01" stop-color="#00a1ff"/><stop offset=".26" stop-color="#00beff"/><stop offset=".51" stop-color="#00d2ff"/><stop offset=".76" stop-color="#00dfff"/><stop offset="1" stop-color="#00e3ff"/></linearGradient><linearGradient id="b" x1="33.83" y1="22" x2="9.64" y2="22" gradientTransform="matrix(1 0 0 -1 0 42)" gradientUnits="userSpaceOnUse"><stop offset="0" stop-color="#ffe000"/><stop offset=".41" stop-color="#ffbd00"/><stop offset=".78" stop-color="orange"/><stop offset="1" stop-color="#ff9c00"/></linearGradient><linearGradient id="c" x1="24.83" y1="19.7" x2="2.07" y2="-3.05" gradientTransform="matrix(1 0 0 -1 0 42)" gradientUnits="userSpaceOnUse"><stop offset="0" stop-color="#ff3a44"/><stop offset="1" stop-color="#c31162"/></linearGradient><linearGradient id="d" x1="7.3" y1="41.82" x2="17.46" y2="31.66" gradientTransform="matrix(1 0 0 -1 0 42)" gradientUnits="userSpaceOnUse"><stop offset="0" stop-color="#32a071"/><stop offset=".07" stop-color="#2da771"/><stop offset=".48" stop-color="#15cf74"/><stop offset=".8" stop-color="#06e775"/><stop offset="1" stop-color="#00f076"/></linearGradient></defs><rect width="135" height="40" rx="5"/><path d="M130 .8a4.2 4.2 0 014.2 4.2v30a4.2 4.2 0 01-4.2 4.2H5A4.2 4.2 0 01.8 35V5A4.2 4.2 0 015 .8h125m0-.8H5a5.1 5.1 0 00-5 5v30a5 5 0 005 5h125a5 5 0 005-5V5a5.1 5.1 0 00-5-5z" fill="#a6a6a6"/><path d="M64.7 12.8a3.7 3.7 0 103.8 3.7 3.7 3.7 0 00-3.8-3.7zm0 6a2.2 2.2 0 01-2.1-2.3 2.1 2.1 0 012.1-2.2 2.1 2.1 0 012.1 2.2 2.2 2.2 0 01-2.1 2.3zm-8.1-6a3.7 3.7 0 000 7.4 3.7 3.7 0 000-7.4zm0 6a2.2 2.2 0 01-2.1-2.3 2.1 2.1 0 114.2 0 2.2 2.2 0 01-2.1 2.3zm-9.7-4.9v1.6h3.8a3.1 3.1 0 01-.9 2 3.9 3.9 0 01-2.9 1.1 4.1 4.1 0 01-4.1-4.1 4.1 4.1 0 014.1-4.2 3.5 3.5 0 012.8 1.1l1.2-1.1a5.6 5.6 0 00-4-1.6 5.9 5.9 0 00-5.9 5.8 5.9 5.9 0 005.9 5.7 5.1 5.1 0 004-1.6 4.9 4.9 0 001.4-3.7 3.4 3.4 0 00-.1-1zm39.6 1.3a3.3 3.3 0 00-3.2-2.4 3.5 3.5 0 00-3.5 3.7 3.6 3.6 0 003.7 3.7 3.7 3.7 0 003.1-1.6l-1.3-.9a2 2 0 01-1.8 1.1 1.9 1.9 0 01-1.8-1.2l5-2zm-5.1 1.2a2.1 2.1 0 012-2.2 1.7 1.7 0 011.4.8zm-4 3.6H79V9.1h-1.6zm-2.7-6.4a2.8 2.8 0 00-2-.8 3.7 3.7 0 000 7.4 2.8 2.8 0 002-.8v.5c0 1.4-.7 2.2-2 2.2a1.9 1.9 0 01-1.8-1.3l-1.5.6a3.5 3.5 0 003.3 2.2c1.9 0 3.6-1.2 3.6-3.9V13h-1.6zm-1.9 5.2a2.2 2.2 0 01-2-2.3 2.1 2.1 0 012-2.2 2 2 0 012 2.2 2.1 2.1 0 01-2 2.3zm21.4-9.7h-4V20h1.7v-4.1h2.3a3.4 3.4 0 100-6.8zm0 5.2h-2.3v-3.7h2.3a1.9 1.9 0 110 3.7zm10.1-1.5a3.1 3.1 0 00-2.9 1.6l1.4.6a1.6 1.6 0 011.5-.8 1.6 1.6 0 011.7 1.5 3.1 3.1 0 00-1.7-.5c-1.5 0-3.1.9-3.1 2.5a2.5 2.5 0 002.7 2.4A2.3 2.3 0 00106 19v1h1.6v-4.2a3 3 0 00-3.3-3zm-.2 6c-.6 0-1.3-.3-1.3-1s.9-1.1 1.7-1.1a3.1 3.1 0 011.5.3 2 2 0 01-1.9 1.8zm9.2-5.8l-1.8 4.7h-.1l-1.9-4.7h-1.8l2.9 6.6-1.6 3.7h1.7l4.4-10.3zm-14.7 7h1.7V9.1h-1.7z" fill="#fff"/><path d="M10.4 7.5a2 2 0 00-.4 1.4v22.2a2 2 0 00.4 1.4h.1l12.4-12.4L10.5 7.5z" fill="url(#a)"/><path d="M27 24.3l-4.1-4.2 4.1-4.4h.1l4.9 2.9c1.4.8 1.4 2.1 0 2.8l-4.9 2.8z" fill="url(#b)"/><path d="M27.1 24.2L22.9 20 10.4 32.5a1.6 1.6 0 002.1 0l14.6-8.3" fill="url(#c)"/><path d="M27.1 15.8L12.5 7.5a1.8 1.8 0 00-2.1 0L22.9 20z" fill="url(#d)"/><path d="M27 24.1l-14.5 8.3a1.8 1.8 0 01-2 0 1.5 1.5 0 002 0l14.6-8.3z" style="isolation:isolate" opacity=".2"/><path d="M10.4 32.3a2 2 0 01-.4-1.4v.2a2 2 0 00.4 1.4zm21.6-11l-5 2.8h.1l4.9-2.7c.7-.4 1.1-.9 1.1-1.4a2.2 2.2 0 01-1.1 1.3z" style="isolation:isolate" opacity=".12"/><path d="M12.5 7.6L32 18.7a2.2 2.2 0 011.1 1.3c0-.5-.4-1-1.1-1.4L12.5 7.5c-1.4-.8-2.5-.2-2.5 1.4v.2c0-1.6 1.1-2.3 2.5-1.5z" style="isolation:isolate" fill="#fff" opacity=".25"/><path d="M41.8 27l3.9-.3 2.4-.2v.7a4.7 4.7 0 00-1.7.2 3.1 3.1 0 00-2.1 2.8c0 1.7 1.7 2.3 3.1 2.3l-.3.8c-1.6-.1-3.5-1-3.5-2.9a3.6 3.6 0 011.7-3.1l-4.2.6v-.8zm5.8 2.6l-.5.2a8.3 8.3 0 00-.7-1.3l.5-.2zm1-.4l-.5.2a4.7 4.7 0 00-.7-1.2l.4-.3zm9 1.6h-3.7v2a.7.7 0 01-.5.7 6.6 6.6 0 01-1.9.2 1.1 1.1 0 00-.3-.7h1.7a.3.3 0 00.3-.3v-1.9h-3.7v-.7h3.7v-1.5h-3.1V28h3.1v-1.4l-2.9.2a1.1 1.1 0 01-.2-.6 33.1 33.1 0 006.1-.7l.5.5-2.8.5V28h3.2v.6h-3.2v1.5h3.7zm2.7-4.6c-.1.2-.1.5-.2.6s-.4 2.5-.4 3.5a4.9 4.9 0 00.1 1.2 6.9 6.9 0 01.5-1.3l.4.3a12.1 12.1 0 00-.7 2v.7h-.6a9.3 9.3 0 01-.4-2.8 26 26 0 01.4-3.6 1.3 1.3 0 00.1-.6zm2 4.4c0 .3-.1.5-.1.8s.3.8 1.5.8l2.2-.2v.7l-2.2.2c-1.5 0-2.2-.5-2.2-1.3a4.3 4.3 0 01.2-1.1zm-.3-3.7a10.9 10.9 0 003.6 0v.8a21.6 21.6 0 01-3.6 0zm9.7-.9a7.7 7.7 0 003.7 7.1 1.5 1.5 0 00-.5.6 7.8 7.8 0 01-3.6-5.1 8.2 8.2 0 01-3.6 5.1 1.7 1.7 0 00-.6-.6c2-1 3.1-2.8 3.6-5.3h.4c0-.4-.1-.8-.1-1.1h-2.2V26zm12.5 6.3a2.3 2.3 0 01-1.7.7 1 1 0 01-1-1.1c0-1 .4-2.5.4-3.3a.7.7 0 00-.7-.8c-.8 0-1.8.9-2.7 1.8v1a16.2 16.2 0 00.1 2.2v.5h-.8v-.5a18.5 18.5 0 01.1-2.3v-.4l-1.5 2.1-.4-.6a26.1 26.1 0 001.9-2.7 2.5 2.5 0 00.1-.8l-1.7.2v-.8H78a3.9 3.9 0 00.1-.9V26h.8c0 .2-.1.7-.2 1.3h.1l.2.3-.4.7v.5a4.6 4.6 0 012.7-1.5c.9 0 1.3.4 1.3 1.2s-.3 2.4-.3 3.3.1.5.4.5a1.9 1.9 0 001.4-.7zm5-3.8a17.7 17.7 0 00.1 2.2 7.5 7.5 0 012.8 1.5l-.5.7a5.4 5.4 0 00-2.3-1.5v.6c0 .7-.4 1.4-1.6 1.4s-2.1-.4-2.1-1.4.7-1.5 2.2-1.5h.8a14.8 14.8 0 01-.1-2v-1.7c0-.3-.1-.7-.1-.8h.9a1.9 1.9 0 00-.1.8v.9h2.6v.7h-2.6zm-.6 2.7h-.9c-.9 0-1.4.3-1.4.8s.5.8 1.3.8 1-.3 1-.9zm8.8-2.5a6.7 6.7 0 00-2.4.5l-.8.2-.2-.8h.8a9.3 9.3 0 012.7-.5 1.9 1.9 0 012.2 2c0 1.9-1.7 3-4 3.4l-.5-.7c2.2-.3 3.7-1.1 3.7-2.7a1.3 1.3 0 00-1.5-1.4zm1.6-2.3v.7l-3.8-.4V26z" fill="#fff" stroke="#fff" stroke-miterlimit="10" stroke-width=".2"/></svg>