<svg xmlns="http://www.w3.org/2000/svg" xmlns:xlink="http://www.w3.org/1999/xlink" width="156" height="120.18" viewBox="0 0 156 120.18"><defs><linearGradient id="a" x1="110.97" y1="73.72" x2="149.01" y2="73.72" gradientTransform="matrix(1.13 0 0 1.13 -20.41 -16.26)" gradientUnits="userSpaceOnUse"><stop offset="0" stop-color="#007940"/><stop offset=".24" stop-color="#19893c"/><stop offset=".75" stop-color="#49a834"/><stop offset="1" stop-color="#5bb431"/></linearGradient><linearGradient id="b" x1="110.96" y1="61.33" x2="149.01" y2="61.33" xlink:href="#a"/></defs><path d="M156 95.91a24.27 24.27 0 01-24.27 24.27H0V24.27A24.26 24.26 0 0124.27 0H156z" fill="#fff"/><path d="M112.88 71.23h10a7.51 7.51 0 001.19-.11 4.57 4.57 0 000-8.9 7.51 7.51 0 00-1.19-.11h-10z" fill="url(#a)"/><path d="M121.73 8.08a17.31 17.31 0 00-17.31 17.3v18h24.49c.57 0 1.26 0 1.7.06 5.54.28 9.63 3.13 9.63 8.07 0 3.88-2.8 7.2-7.88 7.95v.19c5.62.39 9.92 3.48 9.92 8.35 0 5.27-4.72 8.66-11 8.66h-26.86v35.28h25.39a17.3 17.3 0 0017.3-17.3V8.08z" fill="#469b23"/><path d="M126.43 52.74A4.11 4.11 0 00123 48.6a8 8 0 00-1-.07h-9.08V57H122a8 8 0 001-.07 4.11 4.11 0 003.43-4.19z" fill="url(#b)"/><path d="M26 8.08a17.31 17.31 0 00-17.35 17.3v42.75a34.57 34.57 0 0015 3.88c6 0 9.27-3.65 9.27-8.57V43.36h14.86v20.08c0 7.86-4.82 14.15-21.36 14.15a74.59 74.59 0 01-17.77-2.14v36.47H34a17.31 17.31 0 0017.31-17.3V8.08z" fill="#0c2c84"/><path d="M73.85 8.08a17.31 17.31 0 00-17.31 17.3V48c4.38-3.76 12-6.11 24.29-5.55a78.51 78.51 0 0113.59 2.06v7.33a33.74 33.74 0 00-13.11-3.83c-9.35-.71-15 3.86-15 12s5.63 12.66 15 12a34.34 34.34 0 0013.11-3.83v7.33a79.11 79.11 0 01-13.59 2.07c-12.32.55-19.91-1.8-24.29-5.56v40h25.38a17.31 17.31 0 0017.31-17.3V8.08z" fill="#e5180d"/></svg>