<!--?xml version="1.0" encoding="utf-8"?-->
<!-- Generator: Adobe Illustrator 18.1.1, SVG Export Plug-In . SVG Version: 6.00 Build 0)  -->

<svg version="1.1" id="_x32_" xmlns="http://www.w3.org/2000/svg" xmlns:xlink="http://www.w3.org/1999/xlink" x="0px" y="0px" viewBox="0 0 512 512" style="width: 256px; height: 256px; opacity: 1;" xml:space="preserve">
<style type="text/css">
	.st0{fill:#4B4B4B;}
</style>
<g>
	<path class="st0" d="M507.356,142.188c-4.458-10.54-11.85-19.514-21.36-25.954c-9.761-6.598-21.152-10.082-33.01-10.082H330.416
		l-3.642-12.422c-1.56-5.309-6.426-8.952-11.958-8.952h-12.408c-6.884,0-12.465-5.574-12.465-12.458v-6.826
		c0-6.884-5.582-12.466-12.458-12.466h-44.437c-6.884,0-12.458,5.582-12.458,12.466v6.826c0,6.884-5.582,12.458-12.466,12.458
		h-12.408c-5.531,0-10.404,3.643-11.957,8.952l-3.642,12.422H59.021c-7.972,0-15.7,1.567-22.978,4.644
		c-10.547,4.465-19.52,11.85-25.954,21.367C3.485,141.938,0,153.351,0,165.173v234.78c0,7.964,1.56,15.692,4.644,22.977
		c4.465,10.555,11.85,19.528,21.367,25.946c9.76,6.605,21.173,10.097,33.01,10.097h393.966c7.95,0,15.678-1.567,22.97-4.644
		c10.547-4.458,19.528-11.858,25.953-21.374c6.605-9.76,10.097-21.174,10.09-33.002v-234.78
		C512,157.208,510.44,149.48,507.356,142.188z M483.713,399.952c0,4.143-0.808,8.164-2.412,11.95
		c-2.325,5.503-6.175,10.183-11.148,13.532c-5.074,3.42-11.013,5.238-17.167,5.245H59.021c-4.15,0-8.172-0.808-11.965-2.411
		c-5.488-2.318-10.168-6.175-13.524-11.148c-3.427-5.074-5.238-11.013-5.245-17.167v-234.78c0-4.15,0.816-8.179,2.411-11.964
		c2.318-5.489,6.176-10.168,11.149-13.532c5.081-3.421,11.012-5.231,17.174-5.231h112.795l-2.239,7.635
		c-1.109,3.772-0.372,7.835,1.982,10.984c2.354,3.134,6.047,4.988,9.975,4.988h147.458c3.928,0,7.628-1.853,9.982-4.988
		c2.347-3.149,3.084-7.212,1.982-10.984l-2.24-7.635h114.27c4.15,0,8.172,0.809,11.957,2.398
		c5.488,2.325,10.168,6.182,13.532,11.148c3.421,5.074,5.238,11.02,5.238,17.182V399.952z" style="fill: rgb(254, 97, 46);"></path>
	<path class="st0" d="M128.71,287.764c24.766,0,44.838-20.071,44.838-44.83c0-24.766-20.072-44.838-44.838-44.838
		c-24.759,0-44.831,20.072-44.831,44.838C83.879,267.693,103.951,287.764,128.71,287.764z" style="fill: rgb(254, 97, 46);"></path>
	<path class="st0" d="M166.678,294.633c-0.973-0.973-5.395-1.216-6.597-0.486c-9.138,5.639-19.865,8.931-31.371,8.931
		s-22.226-3.292-31.364-8.931c-1.209-0.73-5.624-0.486-6.598,0.486c-7.527,7.528-17.445,24.33-19.449,36.323
		c-4.922,29.524,26.62,40.186,57.411,40.186c30.798,0,62.334-10.662,57.418-40.186C184.124,318.964,174.206,302.162,166.678,294.633
		z" style="fill: rgb(254, 97, 46);"></path>
	<rect x="232.576" y="207.363" class="st0" width="203.016" height="22.426" style="fill: rgb(254, 97, 46);"></rect>
	<rect x="232.576" y="270.684" class="st0" width="203.016" height="22.433" style="fill: rgb(254, 97, 46);"></rect>
	<rect x="232.576" y="334.012" class="st0" width="127.966" height="22.426" style="fill: rgb(254, 97, 46);"></rect>
</g>
</svg>
